<svg width="120" height="120" viewBox="0 0 120 120" fill="none" xmlns="http://www.w3.org/2000/svg">
  <!-- Background circle with gradient -->
  <defs>
    <linearGradient id="logoGradientLarge" x1="0%" y1="0%" x2="100%" y2="100%">
      <stop offset="0%" style="stop-color:#3B82F6;stop-opacity:1" />
      <stop offset="50%" style="stop-color:#8B5CF6;stop-opacity:1" />
      <stop offset="100%" style="stop-color:#EC4899;stop-opacity:1" />
    </linearGradient>
    <linearGradient id="gridGradientLarge" x1="0%" y1="0%" x2="100%" y2="100%">
      <stop offset="0%" style="stop-color:#FFFFFF;stop-opacity:0.9" />
      <stop offset="100%" style="stop-color:#FFFFFF;stop-opacity:0.6" />
    </linearGradient>
  </defs>
  
  <!-- Main background circle -->
  <circle cx="60" cy="60" r="55" fill="url(#logoGradientLarge)" stroke="rgba(255,255,255,0.2)" stroke-width="2"/>
  
  <!-- Grid pattern representing spreadsheet -->
  <g fill="url(#gridGradientLarge)" opacity="0.8">
    <!-- Vertical lines -->
    <rect x="30" y="20" width="3" height="80" rx="1.5"/>
    <rect x="45" y="20" width="3" height="80" rx="1.5"/>
    <rect x="60" y="20" width="3" height="80" rx="1.5"/>
    <rect x="75" y="20" width="3" height="80" rx="1.5"/>
    <rect x="90" y="20" width="3" height="80" rx="1.5"/>
    
    <!-- Horizontal lines -->
    <rect x="20" y="30" width="80" height="3" rx="1.5"/>
    <rect x="20" y="45" width="80" height="3" rx="1.5"/>
    <rect x="20" y="60" width="80" height="3" rx="1.5"/>
    <rect x="20" y="75" width="80" height="3" rx="1.5"/>
    <rect x="20" y="90" width="80" height="3" rx="1.5"/>
  </g>
  
  <!-- AI/Neural network nodes -->
  <g fill="white" opacity="0.9">
    <!-- Central AI node -->
    <circle cx="60" cy="60" r="8"/>
    
    <!-- Surrounding nodes -->
    <circle cx="35" cy="35" r="5"/>
    <circle cx="85" cy="35" r="5"/>
    <circle cx="35" cy="85" r="5"/>
    <circle cx="85" cy="85" r="5"/>
    
    <!-- Connection lines -->
    <g stroke="white" stroke-width="3" opacity="0.6" fill="none">
      <line x1="60" y1="60" x2="35" y2="35"/>
      <line x1="60" y1="60" x2="85" y2="35"/>
      <line x1="60" y1="60" x2="35" y2="85"/>
      <line x1="60" y1="60" x2="85" y2="85"/>
    </g>
  </g>
  
  <!-- Highlight/glow effect -->
  <circle cx="60" cy="60" r="55" fill="none" stroke="rgba(255,255,255,0.3)" stroke-width="1" opacity="0.5"/>
</svg>
