<svg width="32" height="32" viewBox="0 0 32 32" fill="none" xmlns="http://www.w3.org/2000/svg">
  <!-- Background circle with gradient -->
  <defs>
    <linearGradient id="logoGradient" x1="0%" y1="0%" x2="100%" y2="100%">
      <stop offset="0%" style="stop-color:#3B82F6;stop-opacity:1" />
      <stop offset="50%" style="stop-color:#8B5CF6;stop-opacity:1" />
      <stop offset="100%" style="stop-color:#EC4899;stop-opacity:1" />
    </linearGradient>
    <linearGradient id="gridGradient" x1="0%" y1="0%" x2="100%" y2="100%">
      <stop offset="0%" style="stop-color:#FFFFFF;stop-opacity:0.9" />
      <stop offset="100%" style="stop-color:#FFFFFF;stop-opacity:0.6" />
    </linearGradient>
  </defs>
  
  <!-- Main background circle -->
  <circle cx="16" cy="16" r="15" fill="url(#logoGradient)" stroke="rgba(255,255,255,0.2)" stroke-width="1"/>
  
  <!-- Grid pattern representing spreadsheet -->
  <g fill="url(#gridGradient)" opacity="0.8">
    <!-- Vertical lines -->
    <rect x="8" y="6" width="1" height="20" rx="0.5"/>
    <rect x="12" y="6" width="1" height="20" rx="0.5"/>
    <rect x="16" y="6" width="1" height="20" rx="0.5"/>
    <rect x="20" y="6" width="1" height="20" rx="0.5"/>
    <rect x="24" y="6" width="1" height="20" rx="0.5"/>
    
    <!-- Horizontal lines -->
    <rect x="6" y="8" width="20" height="1" rx="0.5"/>
    <rect x="6" y="12" width="20" height="1" rx="0.5"/>
    <rect x="6" y="16" width="20" height="1" rx="0.5"/>
    <rect x="6" y="20" width="20" height="1" rx="0.5"/>
    <rect x="6" y="24" width="20" height="1" rx="0.5"/>
  </g>
  
  <!-- AI/Neural network nodes -->
  <g fill="white" opacity="0.9">
    <!-- Central AI node -->
    <circle cx="16" cy="16" r="2.5"/>
    
    <!-- Surrounding nodes -->
    <circle cx="10" cy="10" r="1.5"/>
    <circle cx="22" cy="10" r="1.5"/>
    <circle cx="10" cy="22" r="1.5"/>
    <circle cx="22" cy="22" r="1.5"/>
    
    <!-- Connection lines -->
    <g stroke="white" stroke-width="1" opacity="0.6" fill="none">
      <line x1="16" y1="16" x2="10" y2="10"/>
      <line x1="16" y1="16" x2="22" y2="10"/>
      <line x1="16" y1="16" x2="10" y2="22"/>
      <line x1="16" y1="16" x2="22" y2="22"/>
    </g>
  </g>
  
  <!-- Highlight/glow effect -->
  <circle cx="16" cy="16" r="15" fill="none" stroke="rgba(255,255,255,0.3)" stroke-width="0.5" opacity="0.5"/>
</svg>
